<?xml version="1.0" encoding="utf-8"?>
<!-- Generator: Adobe Illustrator 18.0.0, SVG Export Plug-In . SVG Version: 6.00 Build 0)  -->
<!DOCTYPE svg PUBLIC "-//W3C//DTD SVG 1.1//EN" "http://www.w3.org/Graphics/SVG/1.1/DTD/svg11.dtd">
<svg version="1.1" id="Layer_1" xmlns="http://www.w3.org/2000/svg" xmlns:xlink="http://www.w3.org/1999/xlink" x="0px" y="0px"
	 viewBox="0 0 262.8 74.1" enable-background="new 0 0 262.8 74.1" xml:space="preserve">
<g>
	<g>
		<circle fill="#E24E27" cx="33.5" cy="40.5" r="33.4"/>
		<g>
			<path fill="#3D3D3D" d="M57.3,34.9c-0.9-3.1-2.1-5.8-3.9-8.4c-1.9-2.7-4.1-4.9-6.8-6.7l-4.7,3.3c-6-2.9-13.3-2.5-19.2,1.6
				c-8.6,6.1-10.7,18-4.7,26.6s18,10.7,26.6,4.7c6-4.2,8.8-11.1,8-17.9L57.3,34.9z"/>
		</g>
	</g>
	<polygon fill="#E54E27" points="114.1,0.2 117.7,7.6 125.9,8.8 120,14.6 121.4,22.7 114.1,18.9 106.8,22.7 108.2,14.6 102.3,8.8 
		110.4,7.6 	"/>
	<path fill="#E7E7E7" d="M107.2,46.5c0,2.3-0.3,4.3-1,6.2c-0.7,1.8-1.6,3.4-2.9,4.7c-1.3,1.3-2.8,2.3-4.7,3
		c-1.8,0.7-3.9,1.1-6.3,1.1c-1,0-2,0-3.1-0.1c-1.1-0.1-2.1-0.2-3.1-0.4c-1-0.1-2-0.3-3-0.5c-0.9-0.2-1.8-0.4-2.5-0.6V24l8.1-5.3
		v14.2c0.9-0.4,1.8-0.7,2.8-0.9c1-0.2,2-0.3,3.1-0.3c2,0,3.8,0.4,5.4,1.1c1.6,0.7,2.9,1.7,3.9,3c1,1.3,1.8,2.9,2.4,4.7
		C106.9,42.3,107.2,44.3,107.2,46.5z M98.9,46.3c0-5.2-1.9-7.8-5.7-7.8c-0.8,0-1.7,0.1-2.5,0.3c-0.8,0.2-1.5,0.5-2,0.8v14.7
		c0.4,0.1,0.9,0.1,1.5,0.2c0.6,0.1,1.3,0.1,2,0.1c2.2,0,3.9-0.8,5-2.3C98.4,50.8,98.9,48.8,98.9,46.3z"/>
	<path fill="#E7E7E7" d="M118.2,60.8h-8.1V32.3h8.1V60.8z"/>
	<path fill="#E7E7E7" d="M147.1,57.2c0,4.7-1.2,8.1-3.6,10.4c-2.4,2.3-6,3.4-11,3.4c-1.7,0-3.5-0.2-5.2-0.5
		c-1.7-0.3-3.3-0.7-4.8-1.2l1.4-6.8c1.3,0.5,2.6,0.9,4,1.2c1.4,0.3,3,0.4,4.7,0.4c2.3,0,3.9-0.5,4.9-1.5c1-1,1.4-2.3,1.4-3.9v-1
		c-0.9,0.4-1.8,0.7-2.7,0.9c-0.9,0.2-1.9,0.3-3,0.3c-3.9,0-7-1.2-9.1-3.5c-2.1-2.3-3.1-5.6-3.1-9.8c0-2.1,0.3-4,1-5.7
		c0.7-1.7,1.6-3.2,2.8-4.4c1.2-1.2,2.8-2.2,4.6-2.8c1.8-0.7,3.8-1,6.1-1c1,0,2,0,3,0.1c1,0.1,2.1,0.2,3.1,0.4c1,0.1,2,0.3,2.9,0.5
		c0.9,0.2,1.7,0.4,2.5,0.6V57.2z M129.3,45.6c0,4.5,1.8,6.8,5.5,6.8c0.8,0,1.6-0.1,2.3-0.3c0.7-0.2,1.3-0.5,1.8-0.8V38.4
		c-0.4-0.1-0.9-0.1-1.4-0.2c-0.5-0.1-1.2-0.1-1.9-0.1c-2.1,0-3.7,0.7-4.8,2.1C129.9,41.7,129.3,43.5,129.3,45.6z"/>
	<path fill="#E7E7E7" d="M177.9,46.5c0,2.3-0.3,4.3-1,6.2c-0.7,1.8-1.6,3.4-2.9,4.7c-1.3,1.3-2.8,2.3-4.7,3
		c-1.8,0.7-3.9,1.1-6.3,1.1c-1,0-2,0-3.1-0.1c-1.1-0.1-2.1-0.2-3.1-0.4c-1-0.1-2-0.3-3-0.5c-0.9-0.2-1.8-0.4-2.5-0.6V24l8.1-5.3
		v14.2c0.9-0.4,1.8-0.7,2.8-0.9c1-0.2,2-0.3,3.1-0.3c2,0,3.8,0.4,5.4,1.1c1.6,0.7,2.9,1.7,3.9,3c1,1.3,1.8,2.9,2.4,4.7
		C177.6,42.3,177.9,44.3,177.9,46.5z M169.7,46.3c0-5.2-1.9-7.8-5.7-7.8c-0.8,0-1.7,0.1-2.5,0.3c-0.8,0.2-1.5,0.5-2,0.8v14.7
		c0.4,0.1,0.9,0.1,1.5,0.2c0.6,0.1,1.3,0.1,2,0.1c2.2,0,3.9-0.8,5-2.3C169.1,50.8,169.7,48.8,169.7,46.3z"/>
	<path fill="#E7E7E7" d="M192.1,31.5c2.4,0,4.4,0.3,6,0.8c1.6,0.5,2.9,1.3,3.8,2.3c1,1,1.6,2.2,2,3.7c0.4,1.4,0.6,3.1,0.6,4.8V60
		c-1.2,0.3-2.8,0.6-4.8,0.9c-2.1,0.3-4.6,0.5-7.5,0.5c-1.8,0-3.5-0.2-5-0.5c-1.5-0.3-2.8-0.9-3.9-1.6c-1.1-0.7-1.9-1.7-2.5-2.9
		c-0.6-1.2-0.9-2.7-0.9-4.4c0-1.7,0.3-3.1,1-4.2c0.7-1.2,1.6-2.1,2.7-2.8c1.1-0.7,2.4-1.2,3.8-1.5c1.4-0.3,2.9-0.5,4.5-0.5
		c1,0,2,0,2.8,0.1c0.8,0.1,1.5,0.2,2,0.4v-0.8c0-1.4-0.4-2.5-1.2-3.3c-0.8-0.8-2.3-1.2-4.3-1.2c-1.4,0-2.7,0.1-4.1,0.3
		c-1.3,0.2-2.5,0.5-3.5,0.8l-1-6.5c0.5-0.1,1.1-0.3,1.8-0.5c0.7-0.2,1.5-0.3,2.3-0.4c0.8-0.1,1.7-0.2,2.6-0.3
		C190.2,31.6,191.2,31.5,192.1,31.5z M192.7,55.2c0.8,0,1.6,0,2.3-0.1c0.7,0,1.3-0.1,1.7-0.2v-6.1c-0.3-0.1-0.8-0.1-1.5-0.2
		c-0.7-0.1-1.2-0.1-1.8-0.1c-0.8,0-1.5,0-2.1,0.1c-0.7,0.1-1.3,0.3-1.8,0.5c-0.5,0.3-0.9,0.6-1.2,1c-0.3,0.4-0.4,1-0.4,1.6
		c0,1.3,0.4,2.1,1.3,2.6C190.1,54.9,191.3,55.2,192.7,55.2z"/>
	<path fill="#E7E7E7" d="M208.6,33.3c1.4-0.4,3.1-0.8,5.3-1.1c2.2-0.3,4.4-0.5,6.8-0.5c2.4,0,4.4,0.3,6,0.9c1.6,0.6,2.9,1.5,3.8,2.7
		c0.9,1.2,1.6,2.5,2,4.1c0.4,1.6,0.6,3.4,0.6,5.3v16.1h-8.1V45.7c0-2.6-0.3-4.4-1-5.5c-0.7-1.1-2-1.6-3.8-1.6c-0.6,0-1.2,0-1.8,0.1
		c-0.7,0.1-1.2,0.1-1.7,0.2v22h-8.1V33.3z"/>
	<path fill="#E7E7E7" d="M262.8,57.2c0,4.7-1.2,8.1-3.6,10.4c-2.4,2.3-6,3.4-11,3.4c-1.7,0-3.5-0.2-5.2-0.5
		c-1.7-0.3-3.3-0.7-4.8-1.2l1.4-6.8c1.3,0.5,2.6,0.9,4,1.2c1.4,0.3,3,0.4,4.7,0.4c2.3,0,3.9-0.5,4.9-1.5c1-1,1.4-2.3,1.4-3.9v-1
		c-0.9,0.4-1.8,0.7-2.7,0.9c-0.9,0.2-1.9,0.3-3,0.3c-3.9,0-7-1.2-9.1-3.5c-2.1-2.3-3.1-5.6-3.1-9.8c0-2.1,0.3-4,1-5.7
		c0.7-1.7,1.6-3.2,2.8-4.4c1.2-1.2,2.8-2.2,4.6-2.8c1.8-0.7,3.8-1,6.1-1c1,0,2,0,3,0.1c1,0.1,2.1,0.2,3.1,0.4c1,0.1,2,0.3,2.9,0.5
		c0.9,0.2,1.7,0.4,2.5,0.6V57.2z M245.1,45.6c0,4.5,1.8,6.8,5.5,6.8c0.8,0,1.6-0.1,2.3-0.3c0.7-0.2,1.3-0.5,1.8-0.8V38.4
		c-0.4-0.1-0.9-0.1-1.4-0.2c-0.5-0.1-1.2-0.1-1.9-0.1c-2.1,0-3.7,0.7-4.8,2.1C245.6,41.7,245.1,43.5,245.1,45.6z"/>
</g>
</svg>
